<?xml version="1.0" encoding="UTF-8" standalone="no"?>
<!DOCTYPE svg PUBLIC "-//W3C//DTD SVG 1.1//EN" "http://www.w3.org/Graphics/SVG/1.1/DTD/svg11.dtd">
<!-- Created with Vectornator (http://vectornator.io/) -->
<svg height="100%" stroke-miterlimit="10" style="fill-rule:nonzero;clip-rule:evenodd;stroke-linecap:round;stroke-linejoin:round;" version="1.1" viewBox="0 0 960 960" width="100%" xml:space="preserve" xmlns="http://www.w3.org/2000/svg" xmlns:vectornator="http://vectornator.io" xmlns:xlink="http://www.w3.org/1999/xlink">
<defs/>
<g id="Untitled" vectornator:layerName="Untitled">
<path d="M121 579C115 579 110 577 106 573C102 569 100 564 100 558C100 552 102 547 106 543C110 539 115 537 121 537C127 537 132 539 136 543C140 547 142 552 142 558C142 564 140 569 136 573C132 577 127 579 121 579ZM121 423C115 423 110 421 106 417C102 413 100 408 100 402C100 396 102 391 106 387C110 383 115 381 121 381C127 381 132 383 136 387C140 391 142 396 142 402C142 408 140 413 136 417C132 421 127 423 121 423ZM240.105 758C229.368 758 220.333 754.368 213 747.105C205.667 739.842 202 730.842 202 720.105C202 709.368 205.632 700.333 212.895 693C220.158 685.667 229.158 682 239.895 682C250.632 682 259.667 685.632 267 692.895C274.333 700.158 278 709.158 278 719.895C278 730.632 274.368 739.667 267.105 747C259.842 754.333 250.842 758 240.105 758ZM240.105 596C229.368 596 220.333 592.368 213 585.105C205.667 577.842 202 568.842 202 558.105C202 547.368 205.632 538.333 212.895 531C220.158 523.667 229.158 520 239.895 520C250.632 520 259.667 523.632 267 530.895C274.333 538.158 278 547.158 278 557.895C278 568.632 274.368 577.667 267.105 585C259.842 592.333 250.842 596 240.105 596ZM240.105 440C229.368 440 220.333 436.368 213 429.105C205.667 421.842 202 412.842 202 402.105C202 391.368 205.632 382.333 212.895 375C220.158 367.667 229.158 364 239.895 364C250.632 364 259.667 367.632 267 374.895C274.333 382.158 278 391.158 278 401.895C278 412.632 274.368 421.667 267.105 429C259.842 436.333 250.842 440 240.105 440ZM240.105 278C229.368 278 220.333 274.368 213 267.105C205.667 259.842 202 250.842 202 240.105C202 229.368 205.632 220.333 212.895 213C220.158 205.667 229.158 202 239.895 202C250.632 202 259.667 205.632 267 212.895C274.333 220.158 278 229.158 278 239.895C278 250.632 274.368 259.667 267.105 267C259.842 274.333 250.842 278 240.105 278ZM402 612C387 612 374.25 606.75 363.75 596.25C353.25 585.75 348 573 348 558C348 543 353.25 530.25 363.75 519.75C374.25 509.25 387 504 402 504C417 504 429.75 509.25 440.25 519.75C450.75 530.25 456 543 456 558C456 573 450.75 585.75 440.25 596.25C429.75 606.75 417 612 402 612ZM402 456C387 456 374.25 450.75 363.75 440.25C353.25 429.75 348 417 348 402C348 387 353.25 374.25 363.75 363.75C374.25 353.25 387 348 402 348C417 348 429.75 353.25 440.25 363.75C450.75 374.25 456 387 456 402C456 417 450.75 429.75 440.25 440.25C429.75 450.75 417 456 402 456ZM402.105 758C391.368 758 382.333 754.368 375 747.105C367.667 739.842 364 730.842 364 720.105C364 709.368 367.632 700.333 374.895 693C382.158 685.667 391.158 682 401.895 682C412.632 682 421.667 685.632 429 692.895C436.333 700.158 440 709.158 440 719.895C440 730.632 436.368 739.667 429.105 747C421.842 754.333 412.842 758 402.105 758ZM402.105 278C391.368 278 382.333 274.368 375 267.105C367.667 259.842 364 250.842 364 240.105C364 229.368 367.632 220.333 374.895 213C382.158 205.667 391.158 202 401.895 202C412.632 202 421.667 205.632 429 212.895C436.333 220.158 440 229.158 440 239.895C440 250.632 436.368 259.667 429.105 267C421.842 274.333 412.842 278 402.105 278ZM402 860C396 860 391 858 387 854C383 850 381 845 381 839C381 833 383 828 387 824C391 820 396 818 402 818C408 818 413 820 417 824C421 828 423 833 423 839C423 845 421 850 417 854C413 858 408 860 402 860ZM402 142C396 142 391 140 387 136C383 132 381 127 381 121C381 115 383 110 387 106C391 102 396 100 402 100C408 100 413 102 417 106C421 110 423 115 423 121C423 127 421 132 417 136C413 140 408 142 402 142ZM558 612C543 612 530.25 606.75 519.75 596.25C509.25 585.75 504 573 504 558C504 543 509.25 530.25 519.75 519.75C530.25 509.25 543 504 558 504C573 504 585.75 509.25 596.25 519.75C606.75 530.25 612 543 612 558C612 573 606.75 585.75 596.25 596.25C585.75 606.75 573 612 558 612ZM558 456C543 456 530.25 450.75 519.75 440.25C509.25 429.75 504 417 504 402C504 387 509.25 374.25 519.75 363.75C530.25 353.25 543 348 558 348C573 348 585.75 353.25 596.25 363.75C606.75 374.25 612 387 612 402C612 417 606.75 429.75 596.25 440.25C585.75 450.75 573 456 558 456ZM558.105 758C547.368 758 538.333 754.368 531 747.105C523.667 739.842 520 730.842 520 720.105C520 709.368 523.632 700.333 530.895 693C538.158 685.667 547.158 682 557.895 682C568.632 682 577.667 685.632 585 692.895C592.333 700.158 596 709.158 596 719.895C596 730.632 592.368 739.667 585.105 747C577.842 754.333 568.842 758 558.105 758ZM558.105 278C547.368 278 538.333 274.368 531 267.105C523.667 259.842 520 250.842 520 240.105C520 229.368 523.632 220.333 530.895 213C538.158 205.667 547.158 202 557.895 202C568.632 202 577.667 205.632 585 212.895C592.333 220.158 596 229.158 596 239.895C596 250.632 592.368 259.667 585.105 267C577.842 274.333 568.842 278 558.105 278ZM558 142C552 142 547 140 543 136C539 132 537 127 537 121C537 115 539 110 543 106C547 102 552 100 558 100C564 100 569 102 573 106C577 110 579 115 579 121C579 127 577 132 573 136C569 140 564 142 558 142ZM564 860C558 860 553 858 549 854C545 850 543 845 543 839C543 833 545 828 549 824C553 820 558 818 564 818C570 818 575 820 579 824C583 828 585 833 585 839C585 845 583 850 579 854C575 858 570 860 564 860ZM720.105 758C709.368 758 700.333 754.368 693 747.105C685.667 739.842 682 730.842 682 720.105C682 709.368 685.632 700.333 692.895 693C700.158 685.667 709.158 682 719.895 682C730.632 682 739.667 685.632 747 692.895C754.333 700.158 758 709.158 758 719.895C758 730.632 754.368 739.667 747.105 747C739.842 754.333 730.842 758 720.105 758ZM720.105 596C709.368 596 700.333 592.368 693 585.105C685.667 577.842 682 568.842 682 558.105C682 547.368 685.632 538.333 692.895 531C700.158 523.667 709.158 520 719.895 520C730.632 520 739.667 523.632 747 530.895C754.333 538.158 758 547.158 758 557.895C758 568.632 754.368 577.667 747.105 585C739.842 592.333 730.842 596 720.105 596ZM720.105 440C709.368 440 700.333 436.368 693 429.105C685.667 421.842 682 412.842 682 402.105C682 391.368 685.632 382.333 692.895 375C700.158 367.667 709.158 364 719.895 364C730.632 364 739.667 367.632 747 374.895C754.333 382.158 758 391.158 758 401.895C758 412.632 754.368 421.667 747.105 429C739.842 436.333 730.842 440 720.105 440ZM720.105 278C709.368 278 700.333 274.368 693 267.105C685.667 259.842 682 250.842 682 240.105C682 229.368 685.632 220.333 692.895 213C700.158 205.667 709.158 202 719.895 202C730.632 202 739.667 205.632 747 212.895C754.333 220.158 758 229.158 758 239.895C758 250.632 754.368 259.667 747.105 267C739.842 274.333 730.842 278 720.105 278ZM839 579C833 579 828 577 824 573C820 569 818 564 818 558C818 552 820 547 824 543C828 539 833 537 839 537C845 537 850 539 854 543C858 547 860 552 860 558C860 564 858 569 854 573C850 577 845 579 839 579ZM839 423C833 423 828 421 824 417C820 413 818 408 818 402C818 396 820 391 824 387C828 383 833 381 839 381C845 381 850 383 854 387C858 391 860 396 860 402C860 408 858 413 854 417C850 421 845 423 839 423Z" fill="#4f46e5" fill-rule="nonzero" opacity="1" stroke="none" vectornator:layerName="path"/>
</g>
</svg>
